<svg xmlns="http://www.w3.org/2000/svg" width="1920" height="1080" viewBox="0 0 1920 1080">
  <defs>
    <linearGradient id="bg" x1="0%" y1="0%" x2="100%" y2="100%">
      <stop offset="0%" style="stop-color:#1a1a1a"/>
      <stop offset="100%" style="stop-color:#2d1a00"/>
    </linearGradient>
  </defs>
  <rect width="1920" height="1080" fill="url(#bg)"/>
  <!-- Grid lines -->
  <g stroke="rgba(255,107,0,0.08)" stroke-width="1">
    <line x1="0" y1="216" x2="1920" y2="216"/>
    <line x1="0" y1="432" x2="1920" y2="432"/>
    <line x1="0" y1="648" x2="1920" y2="648"/>
    <line x1="0" y1="864" x2="1920" y2="864"/>
    <line x1="384" y1="0" x2="384" y2="1080"/>
    <line x1="768" y1="0" x2="768" y2="1080"/>
    <line x1="1152" y1="0" x2="1152" y2="1080"/>
    <line x1="1536" y1="0" x2="1536" y2="1080"/>
  </g>
  <!-- Decorative circles -->
  <circle cx="1600" cy="200" r="300" fill="rgba(255,107,0,0.06)"/>
  <circle cx="1600" cy="200" r="200" fill="rgba(255,107,0,0.06)"/>
  <circle cx="300" cy="900" r="250" fill="rgba(255,107,0,0.04)"/>
  <!-- Silhouette sportif (stylisée) -->
  <g transform="translate(1100, 120)" fill="rgba(255,107,0,0.15)">
    <!-- tête -->
    <circle cx="180" cy="80" r="45"/>
    <!-- corps -->
    <path d="M140 125 Q120 200 100 280 L160 280 L180 220 L200 280 L260 280 Q240 200 220 125 Z"/>
    <!-- bras gauche levé -->
    <path d="M140 140 Q80 100 60 60 Q80 50 100 80 Q120 110 145 150 Z"/>
    <!-- bras droit -->
    <path d="M220 140 Q270 170 300 200 Q285 215 265 200 Q245 185 218 155 Z"/>
    <!-- jambes -->
    <path d="M160 280 Q140 340 120 400 L160 400 L180 330 Z"/>
    <path d="M200 280 Q220 340 240 400 L200 400 L180 330 Z"/>
  </g>
  <!-- Text placeholder -->
  <text x="960" y="520" text-anchor="middle" font-family="Arial, sans-serif" font-size="28" fill="rgba(255,255,255,0.15)" font-weight="bold">📷 Remplacez par votre photo hero (1920×1080)</text>
  <text x="960" y="560" text-anchor="middle" font-family="Arial, sans-serif" font-size="18" fill="rgba(255,255,255,0.1)">Unsplash · Pexels — mots-clés : "home workout" · "personal trainer"</text>
</svg>
